<?xml version="1.0" standalone="no"?>
<!DOCTYPE svg PUBLIC "-//W3C//DTD SVG 20010904//EN"
 "http://www.w3.org/TR/2001/REC-SVG-20010904/DTD/svg10.dtd">
<svg version="1.0" xmlns="http://www.w3.org/2000/svg"
 width="425.000000pt" height="425.000000pt" viewBox="0 0 425.000000 425.000000"
 preserveAspectRatio="xMidYMid meet">
<metadata>
Created by potrace 1.14, written by Peter Selinger 2001-2017
</metadata>
<g transform="translate(0.000000,425.000000) scale(0.100000,-0.100000)"
fill="#000000" stroke="none">
<path d="M4192 4217 c-17 -13 -40 -35 -50 -48 -11 -13 -281 -444 -601 -956
-320 -513 -585 -933 -589 -933 -4 0 -23 27 -42 60 -19 33 -161 275 -314 537
-154 263 -289 491 -300 506 -34 47 -102 81 -161 81 -94 -2 -129 -33 -255 -229
-46 -71 -87 -131 -91 -133 -4 -2 -65 -95 -135 -207 -109 -175 -129 -202 -139
-187 -7 9 -92 154 -190 322 -97 168 -189 322 -203 343 -26 39 -86 80 -134 91
-48 11 -115 -13 -162 -58 -29 -27 -180 -256 -435 -658 l-391 -616 2 -366 3
-366 470 739 c353 555 473 737 481 728 6 -7 82 -133 168 -280 137 -238 154
-271 144 -290 -6 -12 -48 -78 -93 -147 -45 -69 -328 -504 -628 -966 l-547
-842 0 -171 0 -172 127 3 128 3 540 831 c297 457 579 889 626 961 l86 131 324
-556 c178 -306 339 -574 358 -595 45 -50 84 -69 141 -69 57 0 106 22 147 65
17 18 126 186 243 374 118 189 217 343 222 343 4 0 8 -5 8 -10 0 -6 17 -39 39
-73 21 -34 109 -183 196 -332 87 -148 169 -283 184 -298 78 -86 204 -91 279
-14 18 19 161 258 317 531 l285 498 0 345 0 344 -40 -22 c-23 -13 -51 -37 -64
-54 -12 -16 -159 -270 -326 -563 -243 -428 -305 -531 -315 -520 -7 7 -29 44
-50 82 -21 39 -89 157 -151 264 -62 106 -115 199 -116 206 -2 8 18 47 43 87
25 41 264 425 532 855 l487 780 0 322 c0 352 2 343 -58 299z m-1807 -1772
c131 -225 257 -443 281 -483 41 -69 43 -75 30 -100 -28 -53 -347 -557 -354
-560 -4 -1 -139 223 -300 498 -287 493 -292 502 -277 528 8 15 91 144 185 287
93 143 170 264 170 270 0 16 16 -11 265 -440z"/>
</g>
</svg>
